<svg width="692" height="638" viewBox="0 0 692 638" fill="none" xmlns="http://www.w3.org/2000/svg">
<path d="M35 0.0752416V588H690V139.194C690 139.194 626.17 22.4967 529.03 22.4967C431.889 22.4967 406.906 161.615 290.366 161.615C173.825 161.615 137.723 0 35.0465 0L35 0.0752416Z" fill="url(#paint0_linear_658_5685)"/>
<path d="M36.4785 136L36 587.452L689 590V303.683C689 303.683 671.92 228.004 622.072 228.004C572.225 228.004 537.879 370.711 471.415 370.711C404.952 370.711 372.416 200.846 292.586 200.846C225.426 200.846 199.853 298.342 141.697 298.342C83.5414 298.342 84.9337 164.587 36.4785 136Z" fill="url(#paint1_linear_658_5685)"/>
<path d="M36 315L37.3452 588H689V499.965C689 499.965 680.277 432.431 603.198 432.431C526.119 432.431 512.319 501.397 415.947 498.457C319.576 495.518 271.39 322.311 195.696 322.311C120.002 322.311 115.848 455.872 36 315Z" fill="url(#paint2_linear_658_5685)"/>
<path d="M106.047 626.002C106.047 633.162 103.414 637.088 98.7484 637.088C94.6373 637.088 91.8658 633.254 91.7734 626.279C91.7734 619.212 94.8221 615.332 99.0717 615.332C103.321 615.332 106.047 619.258 106.047 625.956V626.002ZM94.6373 626.326C94.6373 631.776 96.3002 634.917 98.8869 634.917C101.797 634.917 103.183 631.499 103.183 626.141C103.183 620.783 101.843 617.549 98.9331 617.549C96.4388 617.549 94.6373 620.598 94.6373 626.326Z" fill="#54576E"/>
<path d="M114.82 618.336H114.774L111.125 620.322L110.57 618.151L115.143 615.703H117.591V636.72H114.866V618.336H114.82Z" fill="#54576E"/>
<path d="M5.17344 14.9661L2.91007 21.8024H0L7.39063 0H10.8088L18.2456 21.8024H15.2432L12.9336 14.9661H5.21964H5.17344ZM12.3331 12.7489L10.2083 6.46682C9.7464 5.03488 9.42306 3.74152 9.05353 2.49434H9.00734C8.684 3.78771 8.31446 5.12729 7.89874 6.42065L5.77394 12.7489H12.3331Z" fill="#54576E"/>
<path d="M0.0462014 136.462C1.29337 136.185 3.23342 136 5.17346 136C7.99114 136 9.79261 136.508 11.1784 137.571C12.3331 138.402 12.9798 139.695 12.9798 141.404C12.9798 143.529 11.5941 145.331 9.2845 146.208C11.3631 146.809 13.7651 148.518 13.7651 151.751C13.7651 153.645 13.026 155.031 11.9174 156.139C10.3931 157.525 7.94494 158.172 4.3882 158.172C2.44815 158.172 0.970021 158.033 0 157.895V136.462H0.0462014ZM2.86389 145.377H5.40441C8.36067 145.377 10.1159 143.806 10.1159 141.728C10.1159 139.187 8.1759 138.171 5.31203 138.171C4.01867 138.171 3.2796 138.263 2.81768 138.356V145.377H2.86389ZM2.86389 155.816C3.41818 155.909 4.20343 155.955 5.21964 155.955C8.12971 155.955 10.8088 154.892 10.8088 151.705C10.8088 148.749 8.26829 147.502 5.17346 147.502H2.86389V155.816Z" fill="#54576E"/>
<path d="M16.5366 316.479C15.5203 316.987 13.4417 317.495 10.7626 317.495C4.61916 317.495 0 313.615 0 306.455C0 299.296 4.61915 295 11.4093 295C14.1346 295 15.8437 295.6 16.5827 295.97L15.8899 298.28C14.8275 297.771 13.3032 297.356 11.5017 297.356C6.37443 297.356 3.00245 300.635 3.00245 306.363C3.00245 311.721 6.09729 315.139 11.3631 315.139C13.0722 315.139 14.8275 314.77 15.9361 314.216L16.5366 316.433V316.479Z" fill="#54576E"/>
<path d="M342.125 626.002C342.125 633.162 339.492 637.088 334.826 637.088C330.715 637.088 327.944 633.254 327.852 626.279C327.852 619.212 330.9 615.332 335.15 615.332C339.399 615.332 342.125 619.258 342.125 625.956V626.002ZM330.715 626.326C330.715 631.776 332.378 634.917 334.965 634.917C337.875 634.917 339.261 631.499 339.261 626.141C339.261 620.783 337.921 617.549 335.011 617.549C332.517 617.549 330.715 620.598 330.715 626.326Z" fill="#54576E"/>
<path d="M344.725 636.719V634.963L346.942 632.792C352.301 627.665 354.749 624.986 354.749 621.799C354.749 619.674 353.733 617.688 350.591 617.688C348.698 617.688 347.081 618.658 346.111 619.443L345.187 617.457C346.665 616.21 348.698 615.332 351.146 615.332C355.673 615.332 357.566 618.427 357.566 621.429C357.566 625.309 354.749 628.45 350.314 632.7L348.651 634.271L358.075 634.317V636.672H344.633L344.725 636.719Z" fill="#54576E"/>
<path d="M586.476 626.002C586.476 633.162 583.843 637.088 579.178 637.088C575.067 637.088 572.296 633.254 572.203 626.279C572.203 619.212 575.252 615.332 579.501 615.332C583.751 615.332 586.476 619.258 586.476 625.956V626.002ZM575.067 626.326C575.067 631.776 576.73 634.917 579.317 634.917C582.227 634.917 583.612 631.499 583.612 626.141C583.612 620.783 582.273 617.549 579.363 617.549C576.868 617.549 575.067 620.598 575.067 626.326Z" fill="#54576E"/>
<path d="M589.755 633.482C590.586 633.99 592.434 634.822 594.42 634.822C598.069 634.822 599.224 632.512 599.178 630.757C599.178 627.8 596.499 626.553 593.727 626.553H592.157V624.429H593.727C595.806 624.429 598.439 623.366 598.439 620.872C598.439 619.209 597.376 617.685 594.743 617.685C593.081 617.685 591.464 618.424 590.54 619.07L589.801 616.992C590.909 616.206 593.034 615.375 595.298 615.375C599.455 615.375 601.303 617.823 601.303 620.41C601.303 622.581 600.009 624.429 597.423 625.352C600.009 625.953 602.134 627.893 602.134 630.803C602.134 634.175 599.501 637.131 594.466 637.131C592.11 637.131 590.032 636.392 589.016 635.699L589.801 633.482H589.755Z" fill="#54576E"/>
<path d="M36.0234 1.10156V589.002H690.003" stroke="#401D98" stroke-width="2.07" stroke-linecap="round" stroke-linejoin="round"/>
<defs>
<linearGradient id="paint0_linear_658_5685" x1="362.523" y1="588" x2="362.523" y2="0.0752725" gradientUnits="userSpaceOnUse">
<stop offset="0.36" stop-color="#FDC33B"/>
<stop offset="1" stop-color="#8E29F2"/>
</linearGradient>
<linearGradient id="paint1_linear_658_5685" x1="362.762" y1="590" x2="362.762" y2="136" gradientUnits="userSpaceOnUse">
<stop offset="0.37" stop-color="#4535F2" stop-opacity="0.5"/>
<stop offset="1" stop-color="#04F2DA"/>
</linearGradient>
<linearGradient id="paint2_linear_658_5685" x1="362.5" y1="588" x2="362.5" y2="315" gradientUnits="userSpaceOnUse">
<stop offset="0.29" stop-color="#ECFC30" stop-opacity="0.64"/>
<stop offset="1" stop-color="#F2B604"/>
</linearGradient>
</defs>
</svg>
